<svg xmlns="http://www.w3.org/2000/svg" viewBox="0 0 286 98" class="h-28 absolute mt-16 z-50" style="color: white">
  <path d="m3.43,4.34h89.96c.03.47.08.91.08,1.35,0,28.66-.01,57.33,0,85.99,0,1.15-.25,1.57-1.5,1.56-12.58-.05-25.16-.04-37.75,0-1.12,0-1.47-.26-1.47-1.45.07-11.12.08-22.25.08-33.37,0-5.75.08-11.5-.13-17.24-.18-5.11-1.06-10.16-4.14-14.43-4.27-5.91-10.13-9.46-17.35-10.5-12.17-1.75-23.5,5.42-27.33,17.1-.09.27-.21.53-.47.78V4.34Z" fill="currentColor"/>
  <path d="m51.65,93.13H4.14c-.03-.39-.09-.74-.09-1.1,0-16.78-.09-33.57.04-50.35.05-6.11,1.94-11.84,6.16-16.35,6.31-6.73,14.28-9.46,23.25-7.19,6.84,1.73,12.75,5.39,15.88,12.24,1.89,4.13,2.32,8.52,2.3,13.03-.07,14.9-.03,29.81-.04,44.71,0,1.62,0,3.24,0,5.02Zm-15.29-20.79s-.1,0-.14,0c0,5.37.02,10.75-.02,16.12,0,.96.24,1.32,1.25,1.31,2.79-.03,5.58.07,8.37.07,3.38,0,3.44-.02,3.39-3.37-.09-5.29-.32-10.57-.41-15.86-.07-4.37,0-8.75-.03-13.12,0-.91-.08-1.84-.25-2.73-.7-3.63-3.9-5.67-7.44-4.79-2.92.72-4.64,2.85-4.7,6.24-.09,5.37-.03,10.75-.03,16.12Zm-29.89.22c0,5.33.02,10.66-.02,15.99,0,1.09.35,1.45,1.44,1.43,3.12-.05,6.24.02,9.37,0,1.7-.01,1.96-.25,1.95-1.99-.03-5.28-.14-10.57-.18-15.85-.03-5.12,0-10.24-.02-15.36-.02-4.01-2.01-6.29-5.8-6.73-2.79-.33-5.26,1.17-6.05,3.88-.41,1.41-.63,2.93-.65,4.4-.08,4.75-.03,9.49-.03,14.24Zm14.98-.21s-.04,0-.05,0c0,5.41.02,10.82-.02,16.24,0,.89.29,1.17,1.14,1.17,3-.02,5.99.06,8.99.01,2.68-.04,2.74-.09,2.7-2.79-.1-7.66-.26-15.31-.38-22.97-.04-2.79.07-5.58-.04-8.37-.14-3.33-2.42-5.62-5.66-5.89-3.08-.25-5.62,1.61-6.39,4.77-.2.84-.28,1.72-.28,2.59-.03,5.08-.01,10.16-.01,15.24Zm22.63-41.18c0-.51,0-.8,0-1.09-.07-2.19-1.89-4.4-3.99-4.87-2.56-.57-5.07.3-5.81,2.61-.97,3.05-1.44,6.26-2.05,9.42-.2,1.02.57,1.29,1.41,1.22.49-.04,1.01-.14,1.44-.36,2.34-1.15,4.67-2.33,6.97-3.55,1.42-.75,2.43-1.79,2.02-3.38Zm-16.13-10.43c-3.5-.07-6.06,2.6-5.12,5.68.84,2.76,2.01,5.44,3.28,8.04.99,2.04,2.07,2,3.37.16.24-.34.47-.69.65-1.06.85-1.8,1.59-3.66,2.54-5.4,2.3-4.2-1.55-7.48-4.71-7.42Zm-16.51,10.19c0,1.36.36,2.39,1.92,3.23,2.54,1.37,5.23,2.45,7.87,3.63.33.15.73.16,1.1.2,1.01.11,1.47-.41,1.49-1.36,0-.41,0-.85-.11-1.24-.74-2.46-1.52-4.9-2.28-7.35-.62-1.99-1.8-2.91-4.03-2.86-3.58.08-5.93,2.18-5.96,5.74Zm11.78,11.89c-.63-.73-.95-1.36-1.46-1.65-2.78-1.55-5.51-3.25-8.45-4.45-3.61-1.48-6.76.95-6.76,4.88,0,.84.23,1.27,1.22,1.25,3.53-.06,7.07-.03,10.61-.03,1.48,0,2.95,0,4.84,0Zm9.75-.38c.05.12.1.25.15.37,1.56,0,3.11,0,4.67,0,3.41,0,6.82,0,10.23-.02.58,0,1.16.01,1.28-.82.52-3.46-2.69-6.49-6.03-5.56-3.44.97-6.47,2.79-9.36,4.83-.4.28-.63.79-.94,1.19Zm-1.68.38c0-.63.05-1.05,0-1.45-.22-1.49-1.84-2.77-3.3-2.65-1.56.13-2.96,1.59-2.81,3.08.03.36.48.96.76.97,1.73.09,3.46.05,5.36.05Z" fill="currentColor"/>
  <path d="m104.58,4.37h4.55v88.76h-4.55V4.37Z" fill="currentColor"/>
  <path d="m238.92,74.19c-3.37,0-6.75,0-10.12,0-.33,0-.72.07-.98-.08-.31-.16-.66-.49-.72-.81-.04-.2.4-.51.65-.74.07-.07.24-.03.36-.05,2.91-.56,3.4-1.08,3.41-4.05.03-6.37.01-12.75,0-19.12,0-.49-.14-.99-.16-1.48-.04-1.4-.8-2.11-2.12-2.35-.71-.13-1.69-.1-1.61-1.11.02-.25,1.16-.58,1.79-.58,6.25-.04,12.5-.02,18.75-.04.72,0,1.06.18,1.09.96.06,1.62.22,3.24.25,4.86,0,.42-.33.84-.51,1.25-.35-.29-.94-.52-1.02-.87-.81-3.46-3.13-4.55-6.42-4.3-1.08.08-2.17.05-3.25.03-.88-.02-1.33.34-1.33,1.24,0,3.25-.02,6.5.03,9.75,0,.29.5.81.77.81,1.66.01,3.32-.08,4.98-.16,1.37-.06,2.19-.76,2.62-2.09.18-.55.77-1.4,1.11-1.38.92.07.78,1.03.78,1.7,0,2.21-.01,4.42-.09,6.62-.01.34-.4.67-.62,1-.34-.24-.92-.44-.97-.73-.43-2.5-2.21-2.84-4.28-2.83-1.08,0-2.16-.07-3.25-.1-.74-.02-1.13.25-1.12,1.11.04,2.67-.02,5.33.03,8,.05,2.66.56,3.21,3.19,3.45,1.28.12,2.58.15,3.87.13,2.16-.02,3.86-.85,4.84-2.9.39-.83.79-1.66,1.32-2.4.23-.32.79-.41,1.21-.6.13.35.41.73.35,1.06-.34,2.01-.75,4-1.14,6-.15.73-.67.82-1.32.82-3.46-.02-6.91,0-10.37,0,0,0,0,0,0,0Z" fill="currentColor"/>
  <path d="m166.82,74.19c-1.46,0-2.92.04-4.37-.03-.39-.02-.75-.38-1.13-.58.27-.38.47-.98.84-1.11,1.88-.7,2.02-.9,1.39-2.77-.54-1.62-1.09-3.23-1.58-4.86-.23-.76-.67-1.09-1.44-1.09-2.54,0-5.08-.06-7.62-.02-.33,0-.85.4-.95.72-.62,1.85-1.21,3.72-1.69,5.6-.35,1.36.18,2.01,1.59,2.24.24.04.57.02.71.17.28.29.6.67.62,1.03.01.22-.51.66-.8.66-2.75.05-5.5.06-8.24-.02-.41-.01-.8-.52-1.2-.8.35-.28.67-.75,1.05-.82,1.81-.3,2.87-1.42,3.52-3.02,3.25-8.01,6.48-16.04,9.73-24.05.2-.5.39-1.03.72-1.44.87-1.07,1.91-.87,2.37.4,2.71,7.46,5.42,14.93,8.14,22.39.33.9.71,1.78,1.05,2.67.63,1.61,1.64,2.76,3.43,3.13.38.08.69.47,1.04.72-.39.22-.77.63-1.17.64-1.99.07-3.99.03-5.99.03,0,.07,0,.14,0,.2Zm-6.15-12.81c-1.24-3.62-2.41-7.01-3.57-10.4-.11-.02-.22-.04-.32-.06-1.27,3.48-2.54,6.96-3.82,10.46h7.72Z" fill="currentColor"/>
  <path d="m131.03,24.76c1.4-3.06,2.65-5.81,3.9-8.56,1.06-2.35,2.08-4.72,3.21-7.04.19-.4.82-.8,1.28-.82,1.58-.1,3.17-.06,4.75,0,.33.01.65.32.98.48-.26.27-.47.69-.79.79-2.14.68-2.17.66-2.14,2.86.07,4.87.14,9.75.25,14.62.05,2.32.23,2.49,2.43,3.24.31.1.55.39.86.62-.89.66-8.91.81-10.73.17.61-.35.98-.66,1.42-.81,1.72-.58,1.87-.76,1.86-2.58,0-4.58-.01-9.17-.02-13.75,0-.4-.04-.81-.36-1.3-2.7,6.22-5.4,12.44-8.1,18.66l-.6-.03c-2.52-6.1-5.03-12.2-7.55-18.3-.12.03-.23.05-.35.08-.11,1.54-.27,3.07-.3,4.61-.08,3.37-.08,6.74-.13,10.11-.02,1.38.56,2.21,2,2.36.33.03.67.12.95.28.17.1.3.39.31.61,0,.13-.24.39-.37.39-2.77.02-5.54.02-8.31.02-.05-.17-.09-.33-.14-.5.46-.25.89-.57,1.38-.74,1.09-.36,1.78-.99,1.87-2.2.44-5.39.93-10.77,1.32-16.16.1-1.43-.44-1.87-1.83-2.22-.46-.11-.85-.49-1.28-.75.44-.2.88-.54,1.33-.57,1.45-.08,2.92,0,4.37-.05.79-.03,1.17.28,1.49,1,1.99,4.58,4.02,9.14,6.05,13.69.24.54.58,1.03,1,1.78Z" fill="currentColor"/>
  <path d="m253.5,43.81c3.75,0,7.49-.02,11.24.03.36,0,.72.38,1.07.59-.27.33-.53.66-.82.97-.07.07-.24.05-.36.09-1.7.52-1.87.85-1.03,2.49,1.17,2.3,2.4,4.57,3.62,6.84.6,1.13,1.23,2.25,1.96,3.57.34-.44.61-.68.76-.99,1.5-3.06,3.03-6.11,4.44-9.22.78-1.71.49-2.13-1.35-2.63-.16-.04-.37-.01-.48-.11-.35-.29-.67-.63-1-.94.38-.23.75-.65,1.13-.66,2.83-.05,5.67-.05,8.5,0,.35,0,.69.41,1.03.63-.27.31-.49.85-.8.9-2.09.36-3.38,1.72-4.41,3.4-1.81,2.94-3.66,5.86-5.31,8.88-.69,1.28-1.18,2.8-1.28,4.24-.18,2.69-.06,5.41.06,8.11.06,1.46.71,2.02,2.17,2.29.45.08.93.11,1.34.29.38.16.68.48,1.02.73-.35.22-.68.53-1.06.65-.43.14-.91.15-1.36.15-3.66-.03-7.33-.05-10.99-.13-.41,0-.82-.39-1.22-.59.4-.28.76-.74,1.19-.82,2.82-.52,3.26-.95,3.34-3.84.06-2.16.04-4.33-.08-6.5-.05-.84-.31-1.74-.72-2.48-2.04-3.77-4.16-7.5-6.27-11.23-.84-1.49-1.94-2.66-3.72-3.1-.41-.1-.67-.83-1-1.28.14-.12.27-.23.41-.35Z" fill="currentColor"/>
  <path d="m133.58,66.82c2.12-6.33,4.25-12.66,6.37-19,.33-.98-.05-1.62-1.01-1.93-.55-.18-1.15-.26-1.66-.52-.31-.17-.58-.58-.66-.93-.03-.15.47-.6.73-.6,3.04-.04,6.08-.04,9.12.03.32,0,.63.5.95.76-.28.26-.55.72-.85.75-2.23.19-3.39,1.68-4.17,3.5-1.85,4.36-3.66,8.74-5.42,13.14-1.42,3.55-2.73,7.14-4.09,10.72-.09.23-.15.51-.32.67-.45.42-.94,1.06-1.45,1.1-.41.03-1.06-.62-1.27-1.11-1.25-2.95-2.42-5.93-3.57-8.91-2.04-5.32-4.02-10.65-6.07-15.97-.63-1.63-1.66-2.85-3.57-3.13-.4-.06-.73-.65-1.09-.99.4-.2.8-.56,1.2-.56,3.5-.04,7-.04,10.5.02.46,0,.91.47,1.37.71-.39.3-.73.76-1.16.88-1.99.56-2.21.88-1.5,2.79,2.16,5.8,4.34,11.6,6.52,17.4.15.41.38.79.57,1.19.17,0,.35,0,.52,0Z" fill="currentColor"/>
  <path d="m185.97,59c0,3.17-.02,6.33,0,9.5.03,2.83.49,3.4,3.25,3.65,1.39.13,2.83.02,4.22-.15,1.25-.15,2.24-.9,2.89-1.99.62-1.03,1.11-2.14,1.76-3.15.21-.34.75-.47,1.13-.69.17.37.55.77.49,1.09-.37,2.08-.8,4.16-1.3,6.21-.07.3-.63.7-.96.7-6.79.03-13.58.03-20.37-.02-.33,0-.65-.44-.97-.67.29-.32.53-.86.88-.93,3.32-.71,3.53-.94,3.53-4.37,0-5.92,0-11.83,0-17.75,0-.58.02-1.17-.02-1.75-.13-2.36-.61-2.83-2.92-3.27-.45-.09-.82-.63-1.22-.96.41-.22.82-.63,1.23-.63,3.67-.04,7.33-.04,11,.02.46,0,.91.42,1.37.65-.41.32-.79.83-1.25.94-2.3.55-2.66.9-2.72,3.7-.07,3.29-.02,6.58-.02,9.87,0,0,0,0,0,0Z" fill="currentColor"/>
  <path d="m225.34,66.48c-.24,1.26-.48,2.51-.73,3.76-.11.53-.26,1.05-.36,1.58q-.42,2.34-2.72,2.34c-5.75-.02-11.49-.03-17.24-.07-.71,0-1.42-.06-2.11-.2-.24-.05-.5-.4-.59-.67-.04-.11.33-.45.56-.53.42-.16.89-.21,1.33-.3,1.9-.41,2.53-1.12,2.54-3.09.03-4.12.02-8.25.02-12.37,0-2.62.01-5.25-.02-7.87-.02-2.07-.4-3.4-2.97-3.64-.37-.03-.68-.65-1.02-1,.37-.21.75-.59,1.12-.6,3.75-.04,7.5-.04,11.25.01.36,0,.72.42,1.09.65-.35.32-.66.85-1.06.92-2.28.44-2.91.95-2.94,3.28-.07,6.75-.06,13.5,0,20.25.03,2.44.61,2.9,3.07,3.17.25.03.49.07.74.1,4.33.45,6.12-.62,8.09-4.97.38-.85.77-1.23,1.93-.75Z" fill="currentColor"/>
  <path d="m259.09,31.35h-10.26c-.05-.14-.09-.27-.14-.41.42-.22.81-.52,1.26-.64,1.59-.44,2.07-.92,2.08-2.49.02-5.04.02-10.08,0-15.12,0-1.47-.21-2.87-2.15-3.1-.28-.03-.49-.66-.73-1.01.08-.13.16-.27.23-.4,4.15.14,8.33.05,12.45.49,3.97.43,5.97,3.53,5.15,7.19-.4,1.79-1.47,3.07-3.13,3.8-1.05.46-1.13,1.01-.53,1.92,1.33,2.01,2.5,4.14,3.92,6.08.96,1.32,2.23,2.42,3.46,3.73-.27.09-.59.29-.91.29-2.66.03-5.07-.57-6.65-2.94-1.2-1.8-2.31-3.66-3.48-5.48-.27-.41-.56-.91-.97-1.11-.65-.31-1.4-.41-2.11-.6-.13.57-.36,1.14-.38,1.71-.05,1.5,0,3,.01,4.5.02,1.65.3,2.02,1.89,2.45.59.16,1.33.17,1,1.14Zm3.58-16.72c-.1-.46-.21-1.38-.52-2.23-.7-1.95-3.03-3.14-4.98-2.53-.39.12-.92.68-.93,1.05-.09,2.83-.08,5.66-.04,8.49,0,.27.42.73.69.77,3.35.46,5.79-1.71,5.78-5.55Z" fill="currentColor"/>
  <path d="m220.31,19.64c0,7.15-5.01,12.29-11.95,12.33-7.61.04-11.93-6.25-12.02-11.28-.14-7.21,5.31-12.77,12.25-12.73,6.7.04,11.73,5.05,11.72,11.68Zm-19.13-.24c.26,2.89.58,5.9,2.48,8.48,3.01,4.08,8.59,3.67,10.59-.98,2.19-5.1,1.73-10.22-1.13-14.95-2.19-3.62-7.39-3.51-9.78-.01-1.51,2.22-2.05,4.69-2.15,7.46Z" fill="currentColor"/>
  <path d="m247.33,8.74c-.37.31-.68.77-1.11.91-1.68.58-1.93.88-2.03,2.66-.22,4.06-.16,8.18-.77,12.18-1.02,6.71-8.23,9.73-13.99,6.06-2.59-1.65-3.5-4.28-3.64-7.17-.17-3.41-.2-6.83-.21-10.24,0-1.79-.14-3.38-2.41-3.63-.15-.02-.3-.14-.42-.24-.09-.07-.13-.2-.18-.3.86-.91,9.03-1.03,10.57.03-.64.27-1.1.55-1.6.65-.87.19-1.56.6-1.55,1.52.03,4.36.11,8.72.22,13.08.01.56.27,1.13.48,1.67,1.01,2.66,2.61,3.81,5.24,3.8,2.91-.01,4.7-1.16,5.57-3.88.44-1.37.72-2.84.74-4.28.05-3.08-.07-6.16-.2-9.23-.07-1.7-.7-2.27-2.4-2.69-.44-.11-.81-.51-1.22-.78.46-.19.91-.54,1.38-.55,2.41-.06,4.82-.03,7.23-.03.1.15.2.29.3.44Z" fill="currentColor"/>
  <path d="m161.7,24.48c.34.53.67,1.07,1.02,1.59.76,1.13,1.37,2.41,2.32,3.35,1.73,1.7,4.69,1.61,6.09.03,1.54-1.74,1.2-4.57-.85-6.2-.97-.77-2.09-1.35-3.14-2.02-1.05-.67-2.18-1.25-3.12-2.06-3.72-3.2-2.68-8.84,1.9-10.6,2.44-.94,4.9-.73,7.35-.06.35.1.85.43.9.72.25,1.47.38,2.95.51,4.44.02.19-.22.4-.48.84-.55-1.02-.98-1.84-1.43-2.65-1.03-1.88-2.75-2.88-4.44-2.58-1.56.27-2.52,1.23-2.94,2.71-.42,1.53.21,2.82,1.27,3.82.84.78,1.88,1.36,2.86,1.97,1.16.73,2.4,1.34,3.52,2.13,2,1.42,3.09,3.36,2.81,5.88-.3,2.78-1.98,4.51-4.48,5.49-2.77,1.09-5.55.81-8.3-.14-.3-.11-.69-.28-.82-.54-.98-1.88-1.08-3.9-1.13-5.93.19-.06.38-.12.57-.18Z" fill="currentColor"/>
  <path d="m179.51,24.53c.26.5.49,1.02.8,1.49.74,1.14,1.4,2.37,2.31,3.36.55.59,1.46.98,2.28,1.16,1.87.43,3.46-.25,4.25-1.6.79-1.36.71-3.39-.45-4.68-.87-.97-1.98-1.75-3.05-2.52-1.35-.96-2.91-1.67-4.15-2.74-3.43-2.98-2.63-8.13,1.46-10.14,2.67-1.31,5.39-1.18,8.14-.37.26.08.64.26.69.46.45,1.67.76,3.35.5,5.07l-.38.16c-.3-.44-.62-.88-.9-1.33-.48-.77-.85-1.64-1.44-2.32-1.52-1.71-4.25-1.77-5.67-.21-1.46,1.6-1.27,4.26.51,5.66.91.72,1.96,1.25,2.95,1.86,1.1.67,2.24,1.28,3.3,2.01,2.13,1.47,3.19,3.53,2.78,6.12-.4,2.56-1.99,4.26-4.33,5.23-2.85,1.18-5.72.83-8.53-.16-.4-.14-.86-.63-.95-1.04-.34-1.45-.56-2.93-.77-4.4-.04-.32.19-.68.29-1.03.13-.02.25-.04.38-.06Z" fill="currentColor"/>
  <path d="m147.8,30.93c.38-.21.74-.52,1.15-.62,1.52-.4,2.05-.89,2.06-2.36.03-5.16.04-10.32-.03-15.48-.03-1.99-.31-2.19-2.24-2.85-.29-.1-.5-.46-.74-.69.27-.2.54-.58.81-.58,3.07-.04,6.15-.03,9.21-.03.41.96-.19,1.17-.82,1.35-1.75.49-1.99.78-1.99,2.59,0,4.99,0,9.99,0,14.98,0,2.17.2,2.41,2.29,3.07.27.09.51.4.66.67.04.07-.32.52-.5.52-3.22.03-6.45.02-9.67.02-.06-.2-.13-.39-.19-.59Z" fill="currentColor"/>
  <path d="m282.33,8.78c-.37.29-.72.78-1.12.82-1.44.16-1.94,1.04-1.95,2.3-.03,5.2-.08,10.41,0,15.61.03,2.11.34,2.27,3.12,3.01-.31.4-.54.98-.78.98-3.15.06-6.31.04-9.47.04-.07-.15-.15-.31-.22-.46.37-.26.71-.67,1.12-.76,1.5-.33,2.02-.78,2.02-2.35.02-5.41,0-10.82-.02-16.24,0-1.22-.58-1.9-1.85-2.08-.41-.06-.76-.54-1.13-.83.42-.17.83-.49,1.25-.49,2.91-.04,5.82-.02,8.72-.02.1.16.2.32.3.47Z" fill="currentColor"/>
  <path d="m247.01,87.88h2.18c-.1,1.04-.17,2.06-.3,3.07-.03.25-.24.63-.44.69-2.47.73-6.33.21-7.01-3.06-.36-1.75.49-3.9,2.08-4.69,1.44-.71,2.98-.83,4.49-.33.46.15.78.69,1.02,1.24-1.21-.78-2.37-1.41-3.83-1.04-1.58.4-2.38,1.26-2.52,2.7-.24,2.43.37,4,1.95,4.73.93.43,1.95.96,2.9.06.63-.6.37-2.17-.53-3.38Z" fill="currentColor"/>
  <path d="m156.62,91.81c-2.25.32-4.25-1.31-4.55-3.73-.28-2.27,1.41-4.51,3.61-4.77,2.44-.29,4.42,1.21,4.77,3.53.3,2.03-1.14,5.03-3.86,4.98,1.08-.4,2.23-.88,2.37-2.13.15-1.36.16-2.8-.15-4.12-.32-1.35-1.74-2.05-3-1.9-1.24.15-2.15,1.07-2.46,2.46-.59,2.65.65,4.79,3.28,5.68Z" fill="currentColor"/>
  <path d="m220.09,91.71c.41-2.66.74-5.44-.13-8.19,1.52,0,3.11-.04,4.7.05.22.01.4.64.64,1.06-1.08-.35-1.88-.74-2.71-.85-.76-.1-1.19.42-1.16,1.26.04,1.52-.04,3.04.06,4.55.04.64.23,1.53.67,1.81.82.52,1.84.42,2.66-.3.25-.22.49-.44.99-.5-.32.37-.59.98-.98,1.06-.91.19-1.87.17-2.82.17-.72,0-1.44-.09-1.92-.12Z" fill="currentColor"/>
  <path d="m135.79,84.98c-1.1-1.52-3.16-1.77-4.67-.56-1.51,1.21-1.69,4.41-.12,5.98.66.67,1.8,1.21,2.71,1.19.83-.02,1.64-.87,2.44-1.34-.02.63-.25,1.39-1.15,1.58-1.84.4-3.58.12-5.01-1.19-1.35-1.24-1.44-2.84-.98-4.49.64-2.28,4.55-3.79,6.55-2.52.33.21.41.82.6,1.25-.12.03-.25.07-.37.1Z" fill="currentColor"/>
  <path d="m271.47,90.12c.1,1.08-.38,1.63-1.27,1.74-.73.09-1.49.04-2.23.01-.76-.02-1.52-.09-2.02-.12.67-2.59.5-5.37.03-8.18,1.44,0,3.03-.04,4.61.04.23.01.44.62.7,1.02-1.06-.35-1.89-.75-2.77-.89-.81-.13-1.31.3-1.26,1.25.09,1.66.07,3.32.19,4.97.04.53.26,1.31.64,1.51.82.44,1.78.45,2.52-.34.28-.3.53-.62.87-1.02Z" fill="currentColor"/>
  <path d="m176.87,83.44h1.79c-.12.93-.31,1.76-.33,2.59-.03,1.37.09,2.74.06,4.11-.02.91.33,1.35,1.21,1.56.85.2,1.47.05,1.89-.74.15-.28.33-.54.57-.95,0,1.54-.38,2.01-1.65,1.97-1.19-.04-2.37-.22-3.33-.32.27-2.69.52-5.39-.21-8.22Z" fill="currentColor"/>
  <path d="m203.9,90.1c.05,1.07-.33,1.59-1.17,1.61-1.43.05-2.87.01-4.2.01.61-2.7.84-5.46-.09-8.29h2.08c-1.11,2.43-.39,4.93-.54,7.37-.01.24.45.67.76.74,1.26.29,2.03-.07,3.16-1.45Z" fill="currentColor"/>
  <path d="m222.74,87.37c.54-.2,1.08-.39,1.8-.65-.07.54-.11.87-.17,1.34-.59-.13-1.09-.24-1.58-.34-.02-.12-.03-.23-.05-.35Z" fill="currentColor"/>
  <path d="m270.38,86.56c-.27,1.63-.42,1.69-1.72.89.56-.29,1.01-.52,1.72-.89Z" fill="currentColor"/>
  <path d="m25.69,22.87c1.77-.94,3.51-1.09,5.22.16-1.72-.8-3.46-.9-5.22-.16Z" fill="currentColor"/>
  <path d="m12.42,28.69c1.02-.87,2.04-1.74,3.06-2.61.08.09.16.18.24.27-1.04.85-2.07,1.7-3.11,2.54-.06-.07-.13-.14-.19-.21Z" fill="currentColor"/>
</svg>